# xmcd
#
# Track frame offsets:
#	150
#	14517
#	28397
#	44633
#	62959
#	83793
#	99891
#	115428
#	130592
#	147423
#	164727
#	181662
#
# Disc length: 2723 seconds
#
# Revision: 1
# Processed by: cddbd v1.5.2PL0 Copyright (c) Steve Scherf et al.
# Submitted via: audiograbber 1.83.01
#
DISCID=aa0aa10c
DTITLE=JAKO - Der JAKO-O Lieder-Kalender
DYEAR=1900
DGENRE=
TTITLE0=Januar - Wenn die frechen Flocken Locken
TTITLE1=Februar - Der Februar im Sauseschritt
TTITLE2=März - Frühlingsduft und Schmetterling
TTITLE3=April - April, April - der macht was er will
TTITLE4=Mai - Maibaum - Fähnchen weh
TTITLE5=Juni - Beerenstark
TTITLE6=Juli - Mein Lieblingskleid
TTITLE7=August - Das Bienenjahr
TTITLE8=September - Farbenschmeichler
TTITLE9=Oktober - Bläst der Wind aus vollen Backen
TTITLE10=November - Draußen wird's kalt und drinnen schön warm
TTITLE11=Dezember - Die zehn guten Wünsche
EXTD=
EXTT0=
EXTT1=
EXTT2=
EXTT3=
EXTT4=
EXTT5=
EXTT6=
EXTT7=
EXTT8=
EXTT9=
EXTT10=
EXTT11=
PLAYORDER=
